<?xml version="1.0" encoding="UTF-8"?>
<!DOCTYPE svg PUBLIC "-//W3C//DTD SVG 1.1//EN" "http://www.w3.org/Graphics/SVG/1.1/DTD/svg11.dtd">
<svg xmlns="http://www.w3.org/2000/svg" version="1.1" width="320px" height="320px" style="shape-rendering:geometricPrecision; text-rendering:geometricPrecision; image-rendering:optimizeQuality; fill-rule:evenodd; clip-rule:evenodd" xmlns:xlink="http://www.w3.org/1999/xlink">
<g><path style="opacity:0.988" fill="#000000" d="M 142.5,-0.5 C 153.833,-0.5 165.167,-0.5 176.5,-0.5C 247.551,10.714 293.718,50.714 315,119.5C 316.734,127.263 318.234,134.929 319.5,142.5C 319.5,153.833 319.5,165.167 319.5,176.5C 308.286,247.551 268.286,293.718 199.5,315C 191.737,316.734 184.071,318.234 176.5,319.5C 165.167,319.5 153.833,319.5 142.5,319.5C 71.4491,308.286 25.2824,268.286 4,199.5C 2.26571,191.737 0.765707,184.071 -0.5,176.5C -0.5,165.167 -0.5,153.833 -0.5,142.5C 10.714,71.4491 50.714,25.2824 119.5,4C 127.263,2.26571 134.929,0.765707 142.5,-0.5 Z"/></g>
<g><path style="opacity:1" fill="#f7f7f7" d="M 207.5,72.5 C 211.753,71.986 215.587,72.986 219,75.5C 220.425,82.3846 220.925,89.3846 220.5,96.5C 226.509,96.3338 232.509,96.5005 238.5,97C 244.542,99.8368 246.042,104.337 243,110.5C 242.097,111.701 240.931,112.535 239.5,113C 233.175,113.5 226.842,113.666 220.5,113.5C 220.666,119.509 220.499,125.509 220,131.5C 217.418,138.088 212.918,139.922 206.5,137C 205.299,136.097 204.465,134.931 204,133.5C 203.667,129.167 203.333,124.833 203,120.5C 202.907,117.993 202.074,115.826 200.5,114C 194.5,113.667 188.5,113.333 182.5,113C 176.855,107.205 177.188,101.871 183.5,97C 189.416,96.8104 195.249,96.3104 201,95.5C 203.013,89.3491 204.013,83.0157 204,76.5C 205.376,75.2949 206.542,73.9616 207.5,72.5 Z"/></g>
<g><path style="opacity:1" fill="#eeeeee" d="M 236.5,77.5 C 236.5,79.1667 236.5,80.8333 236.5,82.5C 238.167,82.5 239.833,82.5 241.5,82.5C 242.833,84.1667 242.833,85.8333 241.5,87.5C 239.833,87.5 238.167,87.5 236.5,87.5C 236.5,89.1667 236.5,90.8333 236.5,92.5C 232.341,94.5857 230.341,93.2524 230.5,88.5C 224.984,88.5266 223.651,86.36 226.5,82C 227.793,81.51 229.127,81.3433 230.5,81.5C 230.341,76.7476 232.341,75.4143 236.5,77.5 Z"/></g>
<g><path style="opacity:1" fill="#cdcdcd" d="M 151.5,81.5 C 131.497,81.3334 111.497,81.5 91.5,82C 89.6547,83.128 87.6547,83.628 85.5,83.5C 86.842,82.207 88.5087,81.3736 90.5,81C 111.004,80.1708 131.337,80.3374 151.5,81.5 Z"/></g>
<g><path style="opacity:1" fill="#fbfbfb" d="M 151.5,81.5 C 156.855,83.522 160.522,87.1887 162.5,92.5C 162.5,113.167 162.5,133.833 162.5,154.5C 182.833,154.5 203.167,154.5 223.5,154.5C 228.289,155.622 231.956,158.289 234.5,162.5C 235.454,183.14 235.787,203.807 235.5,224.5C 233.348,235.484 226.682,241.984 215.5,244C 173.5,244.667 131.5,244.667 89.5,244C 80.2946,240.13 74.7946,233.297 73,223.5C 72.3333,182.167 72.3333,140.833 73,99.5C 74.761,92.2442 78.9277,86.9109 85.5,83.5C 87.6547,83.628 89.6547,83.128 91.5,82C 111.497,81.5 131.497,81.3334 151.5,81.5 Z"/></g>
<g><path style="opacity:1" fill="#979797" d="M 236.5,77.5 C 237.434,78.5676 237.768,79.901 237.5,81.5C 239.099,81.2322 240.432,81.5655 241.5,82.5C 239.833,82.5 238.167,82.5 236.5,82.5C 236.5,80.8333 236.5,79.1667 236.5,77.5 Z"/></g>
<g><path style="opacity:1" fill="#808080" d="M 241.5,87.5 C 240.432,88.4345 239.099,88.7678 237.5,88.5C 237.768,90.099 237.434,91.4324 236.5,92.5C 236.5,90.8333 236.5,89.1667 236.5,87.5C 238.167,87.5 239.833,87.5 241.5,87.5 Z"/></g>
<g><path style="opacity:1" fill="#7e7e7e" d="M 162.5,92.5 C 163.497,112.66 163.83,132.993 163.5,153.5C 183.674,153.17 203.674,153.503 223.5,154.5C 203.167,154.5 182.833,154.5 162.5,154.5C 162.5,133.833 162.5,113.167 162.5,92.5 Z"/></g>
<g><path style="opacity:1" fill="#343434" d="M 145.5,97.5 C 145.5,97.8333 145.5,98.1667 145.5,98.5C 127.786,98.1938 110.12,98.5271 92.5,99.5C 92.6107,98.8826 92.944,98.3826 93.5,98C 110.83,97.5001 128.163,97.3334 145.5,97.5 Z"/></g>
<g><path style="opacity:1" fill="#010101" d="M 145.5,98.5 C 145.5,116.833 145.5,135.167 145.5,153.5C 126.833,153.5 108.167,153.5 89.5,153.5C 89.3334,136.163 89.5001,118.83 90,101.5C 90.7083,100.619 91.5416,99.9528 92.5,99.5C 110.12,98.5271 127.786,98.1938 145.5,98.5 Z"/></g>
<g><path style="opacity:1" fill="#e8e8e8" d="M 185.5,116.5 C 187.167,116.5 188.833,116.5 190.5,116.5C 190.5,117.5 190.5,118.5 190.5,119.5C 191.5,119.5 192.5,119.5 193.5,119.5C 193.66,121.199 193.494,122.866 193,124.5C 191.5,125.333 190.333,126.5 189.5,128C 188.5,128.667 187.5,128.667 186.5,128C 184.256,126.578 182.59,124.744 181.5,122.5C 182.432,120.235 183.765,118.235 185.5,116.5 Z"/></g>
<g><path style="opacity:1" fill="#828282" d="M 145.5,97.5 C 146.497,116.326 146.83,135.326 146.5,154.5C 127.326,154.83 108.326,154.497 89.5,153.5C 108.167,153.5 126.833,153.5 145.5,153.5C 145.5,135.167 145.5,116.833 145.5,98.5C 145.5,98.1667 145.5,97.8333 145.5,97.5 Z"/></g>
<g><path style="opacity:1" fill="#cdcdcd" d="M 234.5,162.5 C 235.222,162.918 235.722,163.584 236,164.5C 236.829,184.671 236.662,204.671 235.5,224.5C 235.787,203.807 235.454,183.14 234.5,162.5 Z"/></g>
<g><path style="opacity:1" fill="#020202" d="M 89.5,171.5 C 108.167,171.5 126.833,171.5 145.5,171.5C 145.5,190.167 145.5,208.833 145.5,227.5C 128.163,227.667 110.83,227.5 93.5,227C 92.3333,225.833 91.1667,224.667 90,223.5C 89.5001,206.17 89.3334,188.837 89.5,171.5 Z"/></g>
<g><path style="opacity:1" fill="#888888" d="M 89.5,171.5 C 108.326,170.503 127.326,170.17 146.5,170.5C 146.83,189.674 146.497,208.674 145.5,227.5C 145.5,208.833 145.5,190.167 145.5,171.5C 126.833,171.5 108.167,171.5 89.5,171.5 Z"/></g>
<g><path style="opacity:1" fill="#828282" d="M 219.5,171.5 C 200.833,171.5 182.167,171.5 163.5,171.5C 163.5,190.167 163.5,208.833 163.5,227.5C 162.503,208.674 162.17,189.674 162.5,170.5C 181.674,170.17 200.674,170.503 219.5,171.5 Z"/></g>
<g><path style="opacity:1" fill="#020202" d="M 219.5,171.5 C 219.667,188.503 219.5,205.503 219,222.5C 217.833,224.333 216.333,225.833 214.5,227C 197.503,227.5 180.503,227.667 163.5,227.5C 163.5,208.833 163.5,190.167 163.5,171.5C 182.167,171.5 200.833,171.5 219.5,171.5 Z"/></g>
</svg>
