<?xml version="1.0" encoding="UTF-8"?>
<!DOCTYPE svg PUBLIC "-//W3C//DTD SVG 1.1//EN" "http://www.w3.org/Graphics/SVG/1.1/DTD/svg11.dtd">
<svg xmlns="http://www.w3.org/2000/svg" version="1.1" width="320px" height="320px" style="shape-rendering:geometricPrecision; text-rendering:geometricPrecision; image-rendering:optimizeQuality; fill-rule:evenodd; clip-rule:evenodd" xmlns:xlink="http://www.w3.org/1999/xlink">
<g><path style="opacity:0.998" fill="#000000" d="M 35.5,-0.5 C 118.167,-0.5 200.833,-0.5 283.5,-0.5C 295.853,2.92937 305.686,9.92937 313,20.5C 315.774,25.3668 317.941,30.3668 319.5,35.5C 319.5,118.167 319.5,200.833 319.5,283.5C 316.071,295.853 309.071,305.686 298.5,313C 293.633,315.774 288.633,317.941 283.5,319.5C 200.833,319.5 118.167,319.5 35.5,319.5C 23.1471,316.071 13.3138,309.071 6,298.5C 3.22592,293.633 1.05926,288.633 -0.5,283.5C -0.5,200.833 -0.5,118.167 -0.5,35.5C 2.92937,23.1471 9.92937,13.3138 20.5,6C 25.3668,3.22592 30.3668,1.05926 35.5,-0.5 Z"/></g>
<g><path style="opacity:1" fill="#f7f7f7" d="M 208.5,73.5 C 212.753,72.986 216.587,73.986 220,76.5C 221.425,83.3846 221.925,90.3846 221.5,97.5C 227.509,97.3338 233.509,97.5005 239.5,98C 245.542,100.837 247.042,105.337 244,111.5C 243.097,112.701 241.931,113.535 240.5,114C 234.175,114.5 227.842,114.666 221.5,114.5C 221.666,120.509 221.499,126.509 221,132.5C 218.418,139.088 213.918,140.922 207.5,138C 206.299,137.097 205.465,135.931 205,134.5C 204.667,130.167 204.333,125.833 204,121.5C 203.907,118.993 203.074,116.826 201.5,115C 195.5,114.667 189.5,114.333 183.5,114C 177.855,108.205 178.188,102.871 184.5,98C 190.416,97.8104 196.249,97.3104 202,96.5C 204.013,90.3491 205.013,84.0157 205,77.5C 206.376,76.2949 207.542,74.9616 208.5,73.5 Z"/></g>
<g><path style="opacity:1" fill="#eeeeee" d="M 237.5,78.5 C 237.5,80.1667 237.5,81.8333 237.5,83.5C 239.167,83.5 240.833,83.5 242.5,83.5C 243.833,85.1667 243.833,86.8333 242.5,88.5C 240.833,88.5 239.167,88.5 237.5,88.5C 237.5,90.1667 237.5,91.8333 237.5,93.5C 233.341,95.5857 231.341,94.2524 231.5,89.5C 225.984,89.5266 224.651,87.36 227.5,83C 228.793,82.51 230.127,82.3433 231.5,82.5C 231.341,77.7476 233.341,76.4143 237.5,78.5 Z"/></g>
<g><path style="opacity:1" fill="#cdcdcd" d="M 152.5,82.5 C 132.497,82.3334 112.497,82.5 92.5,83C 90.6547,84.128 88.6547,84.628 86.5,84.5C 87.842,83.207 89.5087,82.3736 91.5,82C 112.004,81.1708 132.337,81.3374 152.5,82.5 Z"/></g>
<g><path style="opacity:1" fill="#fbfbfb" d="M 152.5,82.5 C 157.855,84.522 161.522,88.1887 163.5,93.5C 163.5,114.167 163.5,134.833 163.5,155.5C 183.833,155.5 204.167,155.5 224.5,155.5C 229.289,156.622 232.956,159.289 235.5,163.5C 236.454,184.14 236.787,204.807 236.5,225.5C 234.348,236.484 227.682,242.984 216.5,245C 174.5,245.667 132.5,245.667 90.5,245C 81.2946,241.13 75.7946,234.297 74,224.5C 73.3333,183.167 73.3333,141.833 74,100.5C 75.761,93.2442 79.9277,87.9109 86.5,84.5C 88.6547,84.628 90.6547,84.128 92.5,83C 112.497,82.5 132.497,82.3334 152.5,82.5 Z"/></g>
<g><path style="opacity:1" fill="#979797" d="M 237.5,78.5 C 238.434,79.5676 238.768,80.901 238.5,82.5C 240.099,82.2322 241.432,82.5655 242.5,83.5C 240.833,83.5 239.167,83.5 237.5,83.5C 237.5,81.8333 237.5,80.1667 237.5,78.5 Z"/></g>
<g><path style="opacity:1" fill="#808080" d="M 242.5,88.5 C 241.432,89.4345 240.099,89.7678 238.5,89.5C 238.768,91.099 238.434,92.4324 237.5,93.5C 237.5,91.8333 237.5,90.1667 237.5,88.5C 239.167,88.5 240.833,88.5 242.5,88.5 Z"/></g>
<g><path style="opacity:1" fill="#343434" d="M 146.5,98.5 C 146.5,98.8333 146.5,99.1667 146.5,99.5C 128.786,99.1938 111.12,99.5271 93.5,100.5C 93.6107,99.8826 93.944,99.3826 94.5,99C 111.83,98.5001 129.163,98.3334 146.5,98.5 Z"/></g>
<g><path style="opacity:1" fill="#010101" d="M 146.5,99.5 C 146.5,117.833 146.5,136.167 146.5,154.5C 127.833,154.5 109.167,154.5 90.5,154.5C 90.3334,137.163 90.5001,119.83 91,102.5C 91.7083,101.619 92.5416,100.953 93.5,100.5C 111.12,99.5271 128.786,99.1938 146.5,99.5 Z"/></g>
<g><path style="opacity:1" fill="#e8e8e8" d="M 186.5,117.5 C 188.167,117.5 189.833,117.5 191.5,117.5C 191.5,118.5 191.5,119.5 191.5,120.5C 192.5,120.5 193.5,120.5 194.5,120.5C 194.66,122.199 194.494,123.866 194,125.5C 192.5,126.333 191.333,127.5 190.5,129C 189.5,129.667 188.5,129.667 187.5,129C 185.256,127.578 183.59,125.744 182.5,123.5C 183.432,121.235 184.765,119.235 186.5,117.5 Z"/></g>
<g><path style="opacity:1" fill="#828282" d="M 146.5,98.5 C 147.497,117.326 147.83,136.326 147.5,155.5C 128.326,155.83 109.326,155.497 90.5,154.5C 109.167,154.5 127.833,154.5 146.5,154.5C 146.5,136.167 146.5,117.833 146.5,99.5C 146.5,99.1667 146.5,98.8333 146.5,98.5 Z"/></g>
<g><path style="opacity:1" fill="#7e7e7e" d="M 163.5,93.5 C 164.497,113.66 164.83,133.993 164.5,154.5C 184.674,154.17 204.674,154.503 224.5,155.5C 204.167,155.5 183.833,155.5 163.5,155.5C 163.5,134.833 163.5,114.167 163.5,93.5 Z"/></g>
<g><path style="opacity:1" fill="#cdcdcd" d="M 235.5,163.5 C 236.222,163.918 236.722,164.584 237,165.5C 237.829,185.671 237.662,205.671 236.5,225.5C 236.787,204.807 236.454,184.14 235.5,163.5 Z"/></g>
<g><path style="opacity:1" fill="#020202" d="M 90.5,172.5 C 109.167,172.5 127.833,172.5 146.5,172.5C 146.5,191.167 146.5,209.833 146.5,228.5C 129.163,228.667 111.83,228.5 94.5,228C 93.3333,226.833 92.1667,225.667 91,224.5C 90.5001,207.17 90.3334,189.837 90.5,172.5 Z"/></g>
<g><path style="opacity:1" fill="#888888" d="M 90.5,172.5 C 109.326,171.503 128.326,171.17 147.5,171.5C 147.83,190.674 147.497,209.674 146.5,228.5C 146.5,209.833 146.5,191.167 146.5,172.5C 127.833,172.5 109.167,172.5 90.5,172.5 Z"/></g>
<g><path style="opacity:1" fill="#828282" d="M 220.5,172.5 C 201.833,172.5 183.167,172.5 164.5,172.5C 164.5,191.167 164.5,209.833 164.5,228.5C 163.503,209.674 163.17,190.674 163.5,171.5C 182.674,171.17 201.674,171.503 220.5,172.5 Z"/></g>
<g><path style="opacity:1" fill="#020202" d="M 220.5,172.5 C 220.667,189.503 220.5,206.503 220,223.5C 218.833,225.333 217.333,226.833 215.5,228C 198.503,228.5 181.503,228.667 164.5,228.5C 164.5,209.833 164.5,191.167 164.5,172.5C 183.167,172.5 201.833,172.5 220.5,172.5 Z"/></g>
</svg>
